:SAMPLES-PER-SECOND 30
:FRAME-RANGE 1-2091
:FULLY-SPECIFIED
:DEGREES
1503
root  104.982 39.3489 4.36935 12.4067 -81.3823 -7.09236
RightUpLeg  -10.1361 -16.3857 -3.95605
RightLeg  16.9821 -13.5147 -2.95893
RightFoot  -9.57245 -0.220833 10.0554
RightToes  5.82063e-011 0 -3.6325e-017
Spine  6.85716 -0.19557 5.03864
Spine1  -1.7574 0.127018 0.229857
HEad  -1.38373 47.3654 -6.82373
LeftShoulder1  1.20057 0.343165 -31.9248
LeftArm  13.5823 6.21817 -32.9606
LeftForeArm  4.94669 -27.3129 -5.62183
LeftHand  0.354784 -1.6212 -5.74914
RightShoulder  4.48188 3.98332 52.4276
RightArm  15.5277 -5.86008 12.4459
RightForeArm  17.8942 1.53707 17.1343
RightHand  0.221085 1.88837 3.36825
LeftUpLeg  -1.70529 28.0553 14.8312
LeftLeg  18.4342 23.3161 8.58651
LeftFoot  2.30376 0.91913 -7.79199
LeftToes  -6.27584e-011 -2.25241e-010 2.80627e-011
1504
root  104.281 39.1384 3.80325 21.2681 -84.4559 -16.2793
RightUpLeg  -10.3421 -14.8632 -2.75855
RightLeg  19.2326 -11.6938 -2.90516
RightFoot  -11.9147 -0.0319785 9.79495
RightToes  5.82063e-011 0 -3.6325e-017
Spine  7.98937 -0.291319 6.61595
Spine1  -2.31367 0.325879 0.224983
HEad  -0.94403 50.537 -6.4092
LeftShoulder1  1.17463 0.412925 -31.9421
LeftArm  15.7032 7.3548 -32.3914
LeftForeArm  3.65191 -26.456 -5.49266
LeftHand  0.363667 -1.61452 -5.90275
RightShoulder  4.69859 4.30154 52.7077
RightArm  15.5136 -4.00875 12.5301
RightForeArm  19.7417 -0.266684 17.4885
RightHand  0.203436 1.8437 3.10961
LeftUpLeg  -5.04116 23.7726 15.5323
LeftLeg  27.9316 22.0417 12.4806
LeftFoot  6.04939 0.216375 -1.6556
LeftToes  -6.27584e-011 -2.25241e-010 2.80627e-011
1505
root  103.537 38.992 3.38502 37.2239 -86.8885 -32.735
RightUpLeg  -9.59625 -13.3566 -2.32014
RightLeg  20.5508 -10.4279 -2.70941
RightFoot  -13.7666 0.115217 9.84528
RightToes  5.82063e-011 0 -3.6325e-017
Spine  8.69345 -0.361667 8.43553
Spine1  -2.16173 0.696141 -0.516219
HEad  -0.999404 52.6367 -7.00544
LeftShoulder1  1.18547 0.396812 -32.0942
LeftArm  18.08 7.30036 -32.1015
LeftForeArm  1.44664 -24.9431 -5.26492
LeftHand  0.390583 -1.84435 -6.12527
RightShoulder  4.87169 4.68559 52.1021
RightArm  12.8227 -3.19586 12.7141
RightForeArm  21.2983 -0.811764 17.2376
RightHand  0.202694 1.87681 3.08054
LeftUpLeg  -8.58594 20.9432 14.8702
LeftLeg  35.7368 10.6804 8.49847
LeftFoot  4.31834 0.165808 -1.39662
LeftToes  -6.27584e-011 -2.25241e-010 2.80627e-011
1506
root  102.733 38.8734 3.07022 81.0168 -88.4958 -76.8524
RightUpLeg  -8.69764 -12.0141 -2.42255
RightLeg  21.6046 -9.43288 -2.5355
RightFoot  -15.4267 0.254334 10.0491
RightToes  5.82063e-011 0 -3.6325e-017
Spine  9.13402 -0.296138 9.9088
Spine1  -2.07479 1.14595 -1.24334
HEad  0.303115 53.7253 -6.94175
LeftShoulder1  1.18909 0.392519 -32.1577
LeftArm  19.632 6.88847 -31.9777
LeftForeArm  -0.351302 -23.7616 -5.09538
LeftHand  0.393474 -1.94853 -6.0741
RightShoulder  5.14255 5.29331 51.2162
RightArm  12.259 -3.20387 12.655
RightForeArm  18.5224 0.406182 17.1019
RightHand  0.205868 1.71891 3.21571
LeftUpLeg  -12.7089 19.1282 12.8852
LeftLeg  43.4081 6.04756 6.4763
LeftFoot  1.56789 0.287048 -2.62164
LeftToes  -6.27584e-011 -2.25241e-010 2.80627e-011
1507
root  101.869 38.9375 2.75397 163.745 -87.9857 -159.609
RightUpLeg  -7.09186 -11.1215 -3.22487
RightLeg  20.72 -8.23171 -1.74989
RightFoot  -16.0835 0.304277 9.96697
RightToes  5.82063e-011 0 -3.6325e-017
Spine  9.31931 0.0766168 10.497
Spine1  -2.23173 1.73113 -2.39837
HEad  1.32584 54.326 -7.27421
LeftShoulder1  1.15931 0.459473 -32.0191
LeftArm  19.9866 6.46785 -31.5262
LeftForeArm  -0.838877 -23.4737 -5.09357
LeftHand  0.39364 -1.9404 -6.07787
RightShoulder  5.26399 5.68559 50.2008
RightArm  13.0324 -2.8672 12.6768
RightForeArm  16.5518 1.73855 16.9576
RightHand  0.190522 1.52331 3.06756
LeftUpLeg  -16.4947 19.5541 9.88675
LeftLeg  47.5415 5.88143 7.25267
LeftFoot  0.0510249 0.207778 -2.08672
LeftToes  -6.27584e-011 -2.25241e-010 2.80627e-011
